
<!-- Generator: visioncortex VTracer 0.6.4 -->
<svg version="1.1" xmlns="http://www.w3.org/2000/svg" viewBox="0 0 1024 1024" preserveAspectRatio="xMidYMid meet">
<path d="M0 0 C337.92 0 675.84 0 1024 0 C1024 337.92 1024 675.84 1024 1024 C686.08 1024 348.16 1024 0 1024 C0 686.08 0 348.16 0 0 Z " fill="#FEFCF3" transform="translate(0,0)"/>
<path d="M0 0 C2.761 0.669 5.279 1.668 7.875 2.812 C8.596 3.122 9.316 3.431 10.058 3.749 C28.471 11.917 45.18 23.341 59.898 37.051 C61.779 38.795 63.706 40.435 65.688 42.062 C75.64 50.57 87.162 64.141 88.305 77.586 C88.312 80.742 88.225 83.853 88 87 C86.515 87.495 86.515 87.495 85 88 C82.801 86.672 82.801 86.672 80.312 84.75 C71.473 78.341 64.504 76.962 53.695 78.457 C50.788 78.932 47.893 79.443 45 80 C45 80.66 45 81.32 45 82 C45.804 81.897 46.609 81.794 47.438 81.688 C52.409 82.124 55.981 84.1 60 87 C63 90.909 63 90.909 63 94 C61.9 94.026 60.801 94.052 59.668 94.078 C38.647 94.784 24.455 104.328 10 119 C6.186 123.372 3.539 127.781 1 133 C7.76 129.753 14.357 126.554 20.562 122.312 C28.886 116.857 38.162 114.667 48 114 C47.701 115.875 47.701 115.875 47 118 C44.556 119.528 42.19 120.837 39.625 122.125 C15.613 134.995 4.663 158.322 -4 183 C-3.34 183 -2.68 183 -2 183 C-1.67 182.01 -1.34 181.02 -1 180 C0.531 178.492 0.531 178.492 2.5 176.875 C6.563 173.448 10.249 169.756 13.922 165.918 C15.957 164.04 17.377 162.866 20 162 C22.75 162.375 22.75 162.375 25 163 C24.492 163.993 23.984 164.985 23.461 166.008 C12.756 187.057 3.405 207.879 8 232 C8.66 232 9.32 232 10 232 C9.936 230.492 9.936 230.492 9.871 228.953 C10.275 216.564 16.859 203.537 25.812 195.125 C32.85 189.418 40.483 185.85 49.562 185.875 C50.513 185.872 51.463 185.87 52.441 185.867 C55 186 55 186 58 187 C58 187.66 58 188.32 58 189 C57.047 189.519 56.095 190.039 55.113 190.574 C53.846 191.278 52.579 191.983 51.312 192.688 C50.687 193.027 50.061 193.367 49.416 193.717 C45.313 196.015 42.216 198.507 39 202 C38.487 202.504 37.974 203.008 37.445 203.527 C25.945 215.81 23.355 231.026 23.691 247.168 C24.203 258.171 29.077 266.423 37.008 273.891 C38.637 275.302 40.314 276.658 42 278 C41.677 277.291 41.354 276.583 41.021 275.853 C35.965 261.723 39.735 241.99 45.438 228.633 C51.334 216.585 60.424 206.802 72 200 C72.715 199.568 73.431 199.136 74.168 198.691 C80.534 195.34 86.935 195.403 94 196 C94.99 196.33 95.98 196.66 97 197 C97 197.66 97 198.32 97 199 C96.507 199.256 96.014 199.512 95.506 199.775 C77.907 208.994 64.303 218.869 57.691 238.527 C53.299 254.236 56.754 266.869 64 281 C65.725 279.275 65.169 276.792 65.25 274.438 C66.257 260.551 70.665 248.335 80.625 238.375 C83.327 236.811 84.927 236.649 88 237 C87.34 239.64 86.68 242.28 86 245 C86.941 244.446 87.882 243.891 88.852 243.32 C90.109 242.588 91.367 241.856 92.625 241.125 C93.242 240.76 93.86 240.395 94.496 240.02 C99.901 236.891 105.045 235.035 111.25 234.125 C117.429 233.06 124.451 231.549 129 227 C129.003 224.468 129.003 224.468 128 222 C126.147 220.571 126.147 220.571 123.812 219.625 C117.866 216.623 113.523 212.242 111 206 C110.679 200.111 112.059 195.446 116 191 C121.689 186.169 127.703 184.781 135 184 C135.714 183.916 136.428 183.832 137.164 183.746 C142.739 183.402 147.342 185.09 152 188 C155.295 191.068 157.821 194.199 158.273 198.758 C158.464 205.064 158.554 210.096 154.688 215.281 C150.018 220.037 144.813 223.651 138 224 C140.401 229.201 142.367 231.904 147.645 234.23 C151.198 235.392 154.787 235.99 158.484 236.508 C162.336 237.261 164.398 238.153 166.688 241.375 C168.603 245.205 169.127 248.398 169.133 252.66 C169.134 253.536 169.135 254.412 169.137 255.314 C169.133 256.221 169.129 257.128 169.125 258.062 C169.129 258.973 169.133 259.884 169.137 260.822 C169.135 262.134 169.135 262.134 169.133 263.473 C169.132 264.269 169.131 265.066 169.129 265.887 C169 268 169 268 168 271 C173.617 266.186 177.712 259.36 179 252 C179.381 243.298 178.888 234.656 178 226 C180.769 226.347 182.535 226.591 184.66 228.461 C190.059 235.83 193.19 243.889 194 253 C198.59 240.651 198.045 228.698 192.969 216.527 C188.455 207.637 181.372 201.887 173.004 196.738 C170.54 194.601 170.299 193.188 170 190 C177.544 189.547 183.758 189.362 190 194 C192.478 196.213 194.78 198.53 197 201 C200.96 194.137 200.186 186.057 200.185 178.389 C200.187 176.401 200.206 174.414 200.225 172.426 C200.235 165.273 199.828 158.523 198.443 151.5 C197.87 148.265 197.851 145.274 198 142 C202.025 142.281 203.745 142.784 206.875 145.438 C209 148 209 148 209 150 C209.66 150 210.32 150 211 150 C208.388 136.416 202.888 123.009 192 114 C184.524 109.299 176.84 105.998 168 105 C168.33 103.68 168.66 102.36 169 101 C178.597 97.989 188.403 97.989 198 101 C184.825 87.886 167.222 78.003 148.25 77.75 C141.469 77.835 135.388 77.962 130.145 82.664 C128.305 84.702 126.643 86.8 125 89 C123.753 90.648 122.503 92.294 121.25 93.938 C120.698 94.689 120.147 95.441 119.578 96.215 C118 98 118 98 115 99 C114.767 98.166 114.533 97.332 114.293 96.473 C112.17 89.924 110.37 85.744 104.688 81.688 C96.771 75.945 92.176 66.458 90 57 C93.541 55.229 97.147 55.477 100.922 56.543 C106.54 58.936 110.025 62.965 113.922 67.562 C115.853 69.828 117.868 71.925 120 74 C124.044 69.578 127.77 65.022 131.312 60.188 C135.177 54.96 139.297 50.214 143.738 45.473 C145.244 43.826 146.694 42.126 148.082 40.379 C151 36.759 154.426 33.957 158 31 C158.739 30.384 158.739 30.384 159.494 29.756 C177.017 15.253 196.866 3.16 219.875 0.562 C223.961 1.135 226.874 2.28 230 5 C235.866 14.709 235.35 27.774 235.625 38.75 C235.664 40.031 235.702 41.313 235.742 42.633 C235.835 45.755 235.921 48.877 236 52 C237.65 51.67 239.3 51.34 241 51 C244.834 55.835 245.493 59.913 245 66 C244.398 69.216 243.52 72.311 242.562 75.438 C242.175 76.727 242.175 76.727 241.779 78.042 C238.944 86.954 234.694 94.946 230 103 C231.207 104.381 231.207 104.381 232.438 105.789 C234.491 108.139 235.07 109.236 236 112.375 C234.354 118.343 229.192 120.999 224 124 C223.34 124 222.68 124 222 124 C222.265 125.006 222.265 125.006 222.535 126.032 C223.337 129.083 224.137 132.135 224.938 135.188 C225.215 136.243 225.493 137.298 225.779 138.385 C226.047 139.406 226.314 140.428 226.59 141.48 C226.836 142.418 227.082 143.355 227.336 144.321 C228.868 150.5 229.183 156.152 229.188 162.5 C229.2 163.437 229.212 164.374 229.225 165.34 C229.243 174.084 229.243 174.084 227 178 C224.875 179.813 224.875 179.813 223 181 C221.02 179.68 219.04 178.36 217 177 C217.33 182.61 217.66 188.22 218 194 C218.834 192.672 219.668 191.345 220.527 189.977 C232.271 171.469 232.271 171.469 240 164 C241.002 163.002 241.002 163.002 242.023 161.984 C268.863 136.642 306.201 125.094 342.5 125.916 C373.046 126.948 401.921 139.859 423 162 C431.236 171.001 437.272 180.773 442 192 C442.455 193.06 442.91 194.119 443.379 195.211 C448.448 209.516 448.74 229.182 442.617 243.156 C436.733 253.503 428.586 262.377 417 266 C410.921 266.686 410.921 266.686 408.33 264.756 C406.64 262.524 406.618 261.246 406.594 258.465 C406.572 257.572 406.55 256.679 406.527 255.76 C406.518 254.828 406.509 253.897 406.5 252.938 C406.378 240.692 404.04 230.65 395.559 221.434 C389.358 215.774 380.699 213.645 372.488 213.793 C362.745 214.604 354.749 219.103 347.992 226.07 C337.528 238.709 335.137 252.996 336 269 C338.513 294.765 354.987 315.434 374.006 331.718 C388.94 343.994 405.472 353.907 423 362 C423.809 362.374 424.619 362.749 425.453 363.135 C458.172 378.118 493.543 391.236 529.461 395.539 C530.2 395.628 530.939 395.717 531.701 395.809 C533.734 396.046 535.769 396.26 537.805 396.473 C541 397 541 397 544 399 C543.625 400.938 543.625 400.938 543 403 C509.994 419.503 424.673 390.852 392.375 380.125 C379.568 375.824 367.072 371.106 355 365 C354.388 364.698 353.775 364.396 353.145 364.084 C322.648 348.963 296.482 324.225 284.875 291.863 C283.03 285.644 282.275 279.467 282 273 C281.936 271.721 281.871 270.442 281.805 269.125 C280.997 245.884 289.326 224.236 304.375 206.625 C315.308 195.067 329.796 186.337 345.906 185.629 C367.803 185.22 386.456 189.062 402.852 204.82 C403.561 205.54 404.27 206.259 405 207 C405.585 207.575 406.17 208.15 406.773 208.742 C414.974 217.442 417.11 228.612 419 240 C419.481 238.584 419.96 237.167 420.438 235.75 C420.704 234.961 420.971 234.172 421.246 233.359 C425.426 220.279 422.993 206.35 416.812 194.312 C413.41 188.38 409.536 183.109 405 178 C404.408 177.314 403.817 176.628 403.207 175.922 C390.051 161.672 371.477 155.026 353 151 C352.223 150.823 351.446 150.647 350.646 150.465 C321.664 145.371 292.96 154.434 269.264 170.833 C268.36 171.473 268.36 171.473 267.438 172.125 C266.878 172.52 266.318 172.916 265.742 173.323 C262.826 175.455 260.229 177.718 257.723 180.305 C255 183 255 183 253 183 C253 183.66 253 184.32 253 185 C251.901 186.134 250.795 187.261 249.664 188.363 C241.234 196.655 234.745 205.76 228.441 215.725 C227.522 217.175 226.594 218.62 225.652 220.057 C220.044 228.657 217.106 236.332 215.464 246.479 C214.326 253.256 212.214 259.152 209.285 265.357 C206.449 271.522 206.154 276.583 208.5 282.938 C208.918 284.096 208.918 284.096 209.344 285.277 C209.56 285.846 209.777 286.414 210 287 C210.66 287 211.32 287 212 287 C212.24 286.348 212.48 285.695 212.727 285.023 C214.382 281.094 216.368 277.384 218.375 273.625 C221.303 268.127 224.204 262.62 227.012 257.059 C232.276 246.675 237.379 236.875 245 228 C245.715 227.148 246.431 226.296 247.168 225.418 C259.213 211.539 273.361 199.372 292 196 C294.367 196.41 294.367 196.41 296 197 C294.627 199.001 293.252 201.001 291.875 203 C291.463 203.601 291.05 204.202 290.625 204.821 C288.475 207.937 286.273 210.943 283.875 213.875 C275.59 224.922 272.482 237.682 270 251 C269.712 252.181 269.712 252.181 269.418 253.387 C265.361 278.753 273.111 303.71 287.752 324.312 C291.553 329.454 295.701 334.272 300 339 C300.779 339.862 301.557 340.725 302.359 341.613 C314.532 354.42 329.511 363.737 345 372 C345.675 372.36 346.351 372.721 347.047 373.092 C374.089 387.229 404.343 394.558 433.875 401.438 C493.279 415.279 493.279 415.279 506 428 C505.75 431.563 505.75 431.563 505 435 C502.192 436.404 499.916 436.081 496.776 436.034 C495.461 436.018 494.147 436.002 492.793 435.985 C491.732 435.969 491.732 435.969 490.65 435.953 C487.64 435.911 484.629 435.887 481.618 435.863 C476.023 435.818 470.429 435.766 464.834 435.678 C423.94 435.05 387.212 443.386 350.816 462.602 C348 464 348 464 346 464 C345.98 464.715 345.96 465.431 345.94 466.168 C345.844 469.446 345.735 472.723 345.625 476 C345.594 477.125 345.563 478.251 345.531 479.41 C345.315 485.571 344.781 491.092 343 497 C344.033 496.406 345.065 495.811 346.129 495.199 C385.158 472.988 427.413 455.653 472.888 467.381 C482.071 470.071 482.071 470.071 484 472 C484.46 476.371 484.46 476.371 482.801 478.641 C480.408 480.447 478.922 480.369 475.941 480.371 C474.926 480.386 473.91 480.4 472.863 480.415 C471.229 480.426 471.229 480.426 469.562 480.438 C432.249 481.352 402.677 499.094 371.062 517.25 C368.487 518.724 365.911 520.197 363.333 521.667 C361.866 522.505 360.4 523.345 358.936 524.188 C344.538 532.431 329.493 537.927 313.205 541.139 C307.99 542.235 304.162 543.86 299.745 546.841 C276.811 562.072 235.406 558.069 208.875 558.312 C207.74 558.33 206.605 558.348 205.435 558.366 C195.892 558.358 185.505 557.433 178 551 C172 544.806 172 544.806 172 542 C170.854 542.999 169.708 544 168.562 545 C167.828 545.636 167.093 546.271 166.336 546.926 C164.808 548.283 163.311 549.675 161.852 551.105 C153.254 559.377 143.393 562.139 131.676 562.203 C130.856 562.209 130.036 562.215 129.192 562.22 C127.451 562.23 125.71 562.236 123.969 562.24 C121.367 562.25 118.765 562.281 116.162 562.312 C101.06 562.408 84.248 562.01 71.625 552.688 C67.677 548.645 65.873 544.631 65.688 539 C65.832 535.095 66.768 531.697 68 528 C67.539 528.413 67.077 528.825 66.602 529.25 C64.416 531.185 62.211 533.095 60 535 C58.844 536.007 58.844 536.007 57.664 537.035 C44.978 547.689 32.93 551.389 16.625 551.312 C15.384 551.307 14.142 551.301 12.863 551.295 C-1.904 551.102 -18.339 550.581 -29.992 540.23 C-33.419 536.468 -35.966 532.91 -36.027 527.68 C-35.489 518.425 -30.768 513.565 -24.707 506.953 C-22.948 505.106 -22.948 505.106 -22 503 C-22.973 502.903 -23.946 502.807 -24.949 502.707 C-29.52 502.045 -33.559 500.436 -37.812 498.688 C-38.668 498.342 -39.523 497.997 -40.404 497.641 C-47.714 494.639 -54.852 491.302 -62 487.938 C-82.971 478.085 -101.966 472.3 -125.066 471.395 C-125.918 471.357 -126.771 471.32 -127.648 471.281 C-128.413 471.251 -129.178 471.221 -129.966 471.189 C-132 471 -132 471 -135 470 C-135.688 467.688 -135.688 467.688 -136 465 C-133.566 461.358 -129.422 460.612 -125.438 459.438 C-124.439 459.125 -124.439 459.125 -123.42 458.807 C-113.104 455.67 -103.418 454.611 -92.625 454.625 C-91.637 454.625 -91.637 454.625 -90.629 454.626 C-79.008 454.663 -68.203 455.939 -57 459 C-56.313 459.182 -55.627 459.364 -54.919 459.551 C-49.902 460.898 -44.949 462.423 -40 464 C-38.51 464.473 -38.51 464.473 -36.99 464.956 C-31.605 466.67 -26.225 468.396 -20.848 470.133 C-15.585 471.826 -10.301 473.43 -5 475 C-5.33 468.4 -5.66 461.8 -6 455 C-7.98 454.34 -9.96 453.68 -12 453 C-13.779 452.304 -15.551 451.592 -17.316 450.863 C-63.957 431.793 -108.47 423.466 -158.3 434.235 C-171.904 437.161 -171.904 437.161 -177 437 C-179 435 -179 435 -179.438 432.188 C-178.759 427.246 -176.009 425.617 -172.262 422.602 C-153.617 408.917 -126.018 403.066 -103.625 399.875 C-101.828 399.617 -101.828 399.617 -99.994 399.354 C-70.411 395.203 -41.259 396.381 -12 402 C-12.027 391.746 -13.428 383.661 -17.57 374.273 C-27.404 351.758 -21.824 325.843 -13.312 304 C-8.998 293.346 -3.874 282.805 2.221 273.045 C4.371 269.7 4.371 269.7 4.953 265.863 C3.736 263.484 2.293 261.371 0.75 259.188 C-7.713 245.998 -9.019 232.247 -10 217 C-11.98 219.64 -13.96 222.28 -16 225 C-20 224 -20 224 -22 221 C-24.199 214.193 -24.385 207.681 -24.375 200.562 C-24.374 198.842 -24.374 198.842 -24.372 197.086 C-24.219 185.979 -22.383 176.11 -18.363 165.727 C-16.828 162.192 -16.828 162.192 -17 159 C-20.925 162.826 -24.682 166.62 -28 171 C-29.65 170.67 -31.3 170.34 -33 170 C-35.163 153.419 -26.294 136.433 -19 122 C-19.71 121.359 -20.421 120.719 -21.152 120.059 C-22.071 119.194 -22.991 118.329 -23.938 117.438 C-24.854 116.591 -25.771 115.744 -26.715 114.871 C-29.431 111.458 -29.909 109.325 -30 105 C-28.232 102.257 -26.295 100.295 -24 98 C-24.41 96.998 -24.82 95.997 -25.242 94.965 C-25.787 93.622 -26.331 92.28 -26.875 90.938 C-27.144 90.281 -27.414 89.624 -27.691 88.947 C-30.082 83.028 -32.273 77.208 -32.375 70.75 C-32.403 69.92 -32.432 69.09 -32.461 68.234 C-32 66 -32 66 -30.289 64.203 C-27.644 62.813 -25.946 62.754 -23 63 C-23.024 62.142 -23.024 62.142 -23.048 61.266 C-23.483 42.854 -23.645 18.251 -12.25 2.5 C-8.537 -0.96 -4.827 -0.525 0 0 Z " fill="#133A51" transform="translate(342,251)"/>
<path d="M0 0 C4.859 0.406 9.535 2.533 14.062 4.25 C14.865 4.537 15.667 4.825 16.494 5.121 C21.271 6.937 24.294 8.449 27 13 C28.266 16.113 28.266 16.113 29.25 19.312 C29.585 20.381 29.92 21.45 30.266 22.551 C30.508 23.359 30.75 24.167 31 25 C32.32 25 33.64 25 35 25 C36.774 23.08 36.774 23.08 38 21 C39.98 21.495 39.98 21.495 42 22 C42.098 23.1 42.196 24.199 42.297 25.332 C43.154 34.075 44.391 41.888 48 50 C49.65 50 51.3 50 53 50 C53.459 49.096 53.918 48.193 54.391 47.262 C55.01 46.07 55.63 44.879 56.25 43.688 C56.853 42.516 57.457 41.344 58.078 40.137 C59.86 37.229 61.135 35.756 64 34 C64.09 41.023 64.153 47.922 63.223 54.891 C62.832 58.595 62.941 62.279 63 66 C66.372 65.719 67.664 65.391 69.91 62.777 C70.945 61.403 70.945 61.403 72 60 C87.832 40.021 87.832 40.021 99 34 C99.66 34 100.32 34 101 34 C100.69 35.438 100.377 36.875 100.062 38.312 C99.888 39.113 99.714 39.914 99.535 40.738 C99 43 99 43 98 46 C109.891 41.847 121.339 34.906 130.129 25.793 C132 24 132 24 134 24 C134.272 23.42 134.544 22.84 134.824 22.242 C137.934 16.312 142.605 11.023 147 6 C147.33 6 147.66 6 148 6 C148.737 15.393 146.159 25.721 140 33 C138.341 34.343 136.675 35.677 135 37 C133.292 39.684 133 40.762 133 44 C142.976 44.959 151.716 40.591 159.379 34.426 C161.341 32.7 163.189 30.883 165 29 C165.33 29 165.66 29 166 29 C166.598 36.691 165.429 43.435 163.423 50.808 C161.29 58.899 161.861 65.635 163.938 73.625 C164.303 75.075 164.666 76.526 165.027 77.977 C165.197 78.658 165.367 79.338 165.542 80.04 C166.157 82.674 166.599 85.326 167 88 C156.07 84.74 151.346 77.733 146 68 C145.01 68.33 144.02 68.66 143 69 C141.743 81.817 149.402 92.705 155.61 103.313 C161.014 112.598 166.169 121.846 166.098 132.863 C166.094 133.75 166.091 134.636 166.088 135.549 C166.08 136.461 166.071 137.373 166.062 138.312 C166.058 139.244 166.053 140.175 166.049 141.135 C166.037 143.423 166.021 145.712 166 148 C162.538 144.881 160.561 141.66 158.375 137.562 C152.515 126.969 145.171 115.884 135 109 C134.01 109 133.02 109 132 109 C132.727 110.709 132.727 110.709 133.469 112.453 C154.655 162.41 154.655 162.41 154 187 C151.605 184.851 150.431 183.072 149.352 180.051 C148.926 178.901 148.926 178.901 148.492 177.729 C147.921 176.138 147.351 174.546 146.781 172.955 C144.818 167.652 142.641 162.395 139 158 C138.01 157.67 137.02 157.34 136 157 C136.413 163.374 136.858 169.736 137.512 176.09 C138.8 188.776 139.235 201.251 139 214 C138.34 214 137.68 214 137 214 C135.455 211.63 134.023 209.268 132.625 206.812 C128.309 198.29 128.309 198.29 121 193 C121.278 202.024 122.513 209.913 125.062 218.527 C127.237 226.583 128.808 236.774 126 244.875 C122.83 249.829 118.686 253.143 113.062 254.938 C112.042 254.968 112.042 254.968 111 255 C109.122 253.122 109.609 249.961 109.438 247.438 C109.354 246.24 109.27 245.042 109.184 243.809 C109.123 242.882 109.062 241.955 109 241 C103.602 242.512 101.541 244.18 98.688 249.062 C98.217 249.94 97.746 250.818 97.262 251.723 C96 254 96 254 94 256 C91 256.25 91 256.25 88 256 C87.34 255.34 86.68 254.68 86 254 C86.227 251.271 86.542 248.689 87 246 C87.278 244.267 87.278 244.267 87.562 242.5 C87.779 241.263 87.779 241.263 88 240 C82.716 241.283 80.521 243.213 77.25 247.5 C76.492 248.48 75.734 249.459 74.953 250.469 C74.309 251.304 73.664 252.139 73 253 C72.34 253.66 71.68 254.32 71 255 C68.177 254.783 66.489 254.384 64.25 252.625 C62.405 250.226 61.979 247.885 61.438 244.938 C62.3 238.903 66.057 235.479 70 231 C83.783 215.163 89.996 194.146 95.875 174.375 C96.173 173.38 96.472 172.385 96.78 171.359 C98.459 165.546 99.515 160.033 100 154 C95.429 156.262 93.542 158.816 91 163.188 C90.311 164.352 89.622 165.516 88.934 166.68 C88.296 167.775 87.657 168.871 87 170 C85.372 172.697 83.712 175.355 82 178 C81.67 178 81.34 178 81 178 C74.468 151.978 85.118 119.259 95.102 95.363 C95.973 93.071 96.378 91.118 96.625 88.688 C96.811 86.862 96.811 86.862 97 85 C89.046 86.746 84.308 93.078 79.981 99.593 C79.554 100.263 79.127 100.934 78.688 101.625 C78.225 102.347 77.763 103.069 77.287 103.813 C69.346 116.559 62.633 130.387 59 145 C53.307 140.572 51.461 134.935 50 128 C49.073 117.588 50.486 107.287 52 97 C44.594 100.264 41.444 105.54 38.188 112.75 C36.404 117.631 35.873 121.925 35.867 127.113 C35.866 128.279 35.865 129.445 35.863 130.646 C35.869 132.461 35.869 132.461 35.875 134.312 C35.871 135.511 35.867 136.709 35.863 137.943 C35.87 144.057 36.054 149.957 37 156 C23.601 143.439 14.289 127.407 13.602 108.773 C13.59 106.641 13.598 104.508 13.625 102.375 C13.631 101.251 13.637 100.126 13.643 98.968 C13.771 90.632 14.671 82.669 16.344 74.512 C16.897 71.553 17.139 68.992 17 66 C7.594 72.423 2.324 84.102 0 95 C-0.96 101.97 -1.515 108.983 -2 116 C-7.266 110.937 -9.502 104.216 -10 97 C-10.095 95.923 -10.095 95.923 -10.191 94.824 C-11.165 74.629 -2.998 53.146 6.031 35.434 C7.333 32.924 7.333 32.924 6 30 C-0.4 34.714 -6.163 39.923 -11.812 45.5 C-12.446 46.116 -13.08 46.733 -13.733 47.367 C-17.488 51.127 -20.374 54.866 -22.964 59.514 C-23.306 60.004 -23.648 60.495 -24 61 C-24.66 61 -25.32 61 -26 61 C-27.644 39.007 -14.059 19.465 -2 2 C-1.34 1.34 -0.68 0.68 0 0 Z " fill="#FCFAF2" transform="translate(366,540)"/>
<path d="M0 0 C0.928 0.389 1.856 0.779 2.812 1.18 C18.184 8.56 26.618 21.762 32.188 37.316 C34.953 49.853 34.211 64.24 29 76 C28.649 76.802 28.299 77.604 27.938 78.43 C21 92.352 8.502 102.105 -6 107 C-20.935 111.363 -36.546 109.833 -50.5 103.062 C-64.804 94.84 -72.682 82.998 -78.184 67.711 C-81.808 51.235 -79.225 35.498 -70.688 21.125 C-55.153 -1.66 -25.588 -11.056 0 0 Z " fill="#133B52" transform="translate(706,221)"/>
<path d="M0 0 C4.671 1.465 6.276 5.359 8.5 9.375 C9.38 10.921 10.262 12.467 11.145 14.012 C11.607 14.826 12.069 15.639 12.545 16.478 C14.518 19.899 16.576 23.265 18.633 26.636 C40.065 61.818 40.065 61.818 35.156 82.566 C32.155 91.154 27.307 99.425 19.625 104.625 C15.028 106.369 10.868 106.732 6 106 C4.515 105.01 4.515 105.01 3 104 C3.551 100.051 4.389 96.651 6 93 C0.242 93.345 -3.077 94.879 -7 99 C-8.006 100.245 -9.006 101.495 -10 102.75 C-12.113 105.277 -12.925 105.971 -16.125 107.188 C-19 107 -19 107 -21.375 105.562 C-23.18 102.715 -23.477 100.548 -23.531 97.195 C-22.102 91.288 -17.581 87.521 -13.125 83.75 C-3.754 75.444 1.36 65.89 2.27 53.247 C2.404 49.018 2.366 44.793 2.312 40.562 C2.304 39.049 2.295 37.536 2.287 36.023 C2.2 26.111 1.68 16.314 0.438 6.473 C0 3 0 3 0 0 Z " fill="#FCFAF2" transform="translate(352,677)"/>
<path d="M0 0 C5.327 9.765 3.005 20.956 1.25 31.5 C1.014 33.057 1.014 33.057 0.773 34.645 C-0.579 42.998 -2.247 51.871 -7 59 C-14.977 56.908 -20.552 53.074 -27 48 C-25.626 44.774 -24.173 43.141 -21.375 41.062 C-18.495 38.745 -18.495 38.745 -17.375 35.25 C-17.837 32.637 -17.837 32.637 -21 31 C-26.38 30.522 -30.676 31.603 -35.625 33.562 C-36.313 33.826 -37.001 34.09 -37.709 34.362 C-43.582 36.683 -49.051 39.543 -54.523 42.68 C-57 44 -57 44 -59 44 C-58.358 39.881 -56.15 36.689 -53.938 33.25 C-53.401 32.376 -53.401 32.376 -52.854 31.484 C-46.977 22.292 -39.121 16.359 -29.938 10.688 C-28.506 9.778 -28.506 9.778 -27.045 8.85 C-18.031 3.195 -10.818 -0.212 0 0 Z " fill="#FCFAF2" transform="translate(558,271)"/>
<path d="M0 0 C0.779 -0.003 1.557 -0.005 2.359 -0.008 C4.25 0.125 4.25 0.125 5.25 1.125 C6.407 13.49 4.34 25.265 -3.75 35.125 C-8.171 39.125 -8.171 39.125 -10.75 39.125 C-10.75 35.495 -10.75 31.865 -10.75 28.125 C-16.822 29.257 -19.604 30.341 -23.75 35.125 C-29.769 42 -29.769 42 -34.188 42.562 C-35.033 42.418 -35.879 42.274 -36.75 42.125 C-36.847 36.01 -36.52 30.192 -35.75 24.125 C-41.093 25.368 -43.788 27.654 -46.75 32.125 C-48.505 35.081 -50.159 38.078 -51.75 41.125 C-52.74 41.125 -53.73 41.125 -54.75 41.125 C-55.338 28.865 -54.689 20.346 -46.375 10.812 C-44.85 9.233 -43.31 7.669 -41.75 6.125 C-40.94 5.265 -40.94 5.265 -40.113 4.387 C-37.378 1.727 -35.282 0.831 -31.562 0.75 C-27.75 1.125 -27.75 1.125 -24.75 2.125 C-22.289 2.063 -19.83 1.928 -17.375 1.75 C-16.068 1.66 -14.761 1.57 -13.414 1.477 C-8.869 1.041 -4.58 -0.015 0 0 Z " fill="#FBF9F2" transform="translate(488.75,498.875)"/>
<path d="M0 0 C16.122 4.372 30.008 15.799 40 29 C40 29.66 40 30.32 40 31 C35.635 29.321 31.549 27.274 27.402 25.121 C22.403 22.788 17.46 22.417 12 23 C9.02 24.332 9.02 24.332 7 26 C7.369 28.681 7.803 29.811 9.785 31.711 C10.537 32.26 11.288 32.809 12.062 33.375 C12.868 33.977 13.674 34.579 14.504 35.199 C16.109 36.357 17.721 37.506 19.34 38.645 C20.409 39.408 20.409 39.408 21.5 40.188 C22.15 40.635 22.799 41.082 23.469 41.543 C25.3 43.285 25.62 44.537 26 47 C22.459 48.555 19.261 49.354 15.438 49.875 C12.083 50.463 10.193 50.874 7.312 52.75 C5.624 55.645 5.7 57.705 6 61 C6.592 61.182 7.183 61.364 7.793 61.551 C12.213 62.957 16.125 64.375 20 67 C17.081 70.202 14.03 72.853 10.5 75.375 C9.402 76.16 9.402 76.16 8.281 76.961 C5.365 78.289 3.992 78.064 1 77 C-5.462 69.769 -5.826 60.265 -7 51 C-7.133 50.063 -7.266 49.126 -7.402 48.16 C-9.047 34.26 -11.123 14.185 -3 2 C-2.01 2 -1.02 2 0 2 C0 1.34 0 0.68 0 0 Z " fill="#FBF9F2" transform="translate(344,272)"/>
<path d="M0 0 C4.077 3.967 7.749 8.183 11.367 12.568 C18.501 21.119 26.109 29.205 34.031 37.023 C34.64 37.624 35.248 38.225 35.875 38.844 C38.373 41.305 40.874 43.764 43.384 46.213 C68.316 70.568 88.531 100.664 89.375 136.688 C89.098 147.759 86.642 157.011 80 166 C79.67 166 79.34 166 79 166 C78.985 165.378 78.971 164.755 78.956 164.114 C77.735 117.098 62.932 78.138 30 44 C19.55 32.835 10.74 21.157 3 8 C2.432 7.113 1.863 6.226 1.277 5.312 C0 3 0 3 0 0 Z " fill="#F9F8F1" transform="translate(586,585)"/>
<path d="M0 0 C4.221 3.158 7.417 6.536 9.094 11.566 C9.628 17.531 9.646 22.524 6.094 27.566 C0.593 33.22 -4.697 36.672 -12.719 37.129 C-19.116 36.946 -23.387 35.105 -27.906 30.566 C-30.403 26.974 -31.906 23.97 -31.906 19.566 C-33.279 20.216 -33.279 20.216 -34.68 20.879 C-35.868 21.436 -37.057 21.993 -38.281 22.566 C-39.465 23.123 -40.648 23.68 -41.867 24.254 C-44.906 25.566 -44.906 25.566 -46.906 25.566 C-47.272 18.748 -46.74 13.161 -42.395 7.648 C-31.696 -3.627 -13.946 -8.159 0 0 Z " fill="#12384F" transform="translate(431.90625,394.43359375)"/>
<path d="M0 0 C7.478 4.801 11.905 12.182 14.508 20.547 C15.403 25.01 15.228 29.472 15 34 C14.34 34 13.68 34 13 34 C12.67 33.01 12.34 32.02 12 31 C10.092 29.318 10.092 29.318 7.75 27.812 C6.982 27.283 6.213 26.753 5.422 26.207 C2.717 24.859 0.981 24.762 -2 25 C-2.227 26.217 -2.454 27.434 -2.688 28.688 C-3.826 33.046 -5.142 35.428 -9 38 C-15.648 39.441 -21.047 37.662 -26.863 34.43 C-30.188 32.205 -32.225 29.874 -33.75 26.188 C-34.677 18.073 -33.638 12.857 -29 6 C-20.558 -3.242 -11.507 -5.407 0 0 Z " fill="#14394F" transform="translate(522,391)"/>
<path d="M0 0 C1.319 3.956 0.585 7.329 0.062 11.375 C-2.242 31.443 -2.398 45.741 9.391 62.629 C11 65 11 65 11 66 C3.007 65.715 -1.322 62.772 -6.836 57.117 C-11 52.445 -11 52.445 -11 50 C-13.475 50.495 -13.475 50.495 -16 51 C-16.121 57.433 -15.824 63.618 -15 70 C-18.953 68.502 -20.43 66.289 -22.625 62.75 C-23.215 61.817 -23.806 60.883 -24.414 59.922 C-29.3 50.921 -29.487 40.2 -27.125 30.352 C-22.719 18.149 -15.25 7.51 -3.5 1.562 C-2.345 1.047 -1.19 0.531 0 0 Z " fill="#FBF9F2" transform="translate(593,679)"/>
<path d="M0 0 C10.317 1.049 22.715 6.621 29.75 14.438 C31.646 17.312 32.144 19.055 32.688 22.375 C24.572 25.263 16.545 26.3 8 27.125 C6.721 27.263 5.441 27.401 4.123 27.543 C-1.912 28.151 -7.317 28.62 -13.312 27.375 C-14.723 24.555 -14.558 22.505 -14.312 19.375 C-12.812 16.5 -12.812 16.5 -11.312 14.375 C-14.467 14.053 -15.924 14.113 -18.594 15.914 C-19.326 16.602 -20.058 17.291 -20.812 18 C-21.592 18.724 -22.372 19.449 -23.176 20.195 C-24.965 22.02 -26.486 23.827 -28 25.875 C-30.312 28.375 -30.312 28.375 -33.5 28.938 C-34.428 28.752 -35.356 28.566 -36.312 28.375 C-38.705 24.786 -38.872 23.613 -38.312 19.375 C-35.099 11.56 -29.1 7.563 -21.637 4.152 C-14.377 1.287 -7.635 0.864 0 0 Z " fill="#FAF8F1" transform="translate(575.3125,763.625)"/>
<path d="M0 0 C8.717 0.197 15.845 6.897 21.723 12.789 C26.162 18.665 25.645 25.539 25.062 32.562 C24.314 35.47 23.347 37.833 22.062 40.562 C21.072 40.562 20.082 40.562 19.062 40.562 C18.494 39.44 17.926 38.317 17.34 37.16 C8.303 19.18 8.303 19.18 -6.938 6.562 C-5.987 1.811 -5.038 0.72 0 0 Z " fill="#12364C" transform="translate(427.9375,366.4375)"/>
<path d="M0 0 C0.536 0.392 1.072 0.784 1.625 1.188 C1.259 4.846 0.54 7.351 -1.164 10.641 C-3.922 16.018 -5.662 21.694 -7.5 27.438 C-8.187 29.569 -8.877 31.699 -9.57 33.828 C-9.87 34.762 -10.169 35.695 -10.477 36.657 C-11.291 38.951 -12.232 41.043 -13.375 43.188 C-15.188 43.125 -15.188 43.125 -17.375 42.188 C-21.073 36.244 -21.256 30.033 -20.375 23.188 C-17.805 14.048 -13.12 5.444 -5.188 0 C-2.375 -0.812 -2.375 -0.812 0 0 Z " fill="#12364B" transform="translate(495.375,364.8125)"/>
<path d="M0 0 C0.66 0 1.32 0 2 0 C1.191 14.84 -4.79 28.702 -11 42 C-11.99 42 -12.98 42 -14 42 C-14.366 26.564 -12.924 15.156 -2.75 2.812 C-1.389 1.42 -1.389 1.42 0 0 Z " fill="#F6F5EF" transform="translate(561,649)"/>
<path d="M0 0 C3.96 1.98 3.96 1.98 8 4 C9.32 3.34 10.64 2.68 12 2 C10.515 6.043 8.571 9.611 6.375 13.312 C5.743 14.381 5.112 15.45 4.461 16.551 C3.979 17.359 3.497 18.167 3 19 C2.34 18.67 1.68 18.34 1 18 C0.67 12.06 0.34 6.12 0 0 Z " fill="#F3F5F0" transform="translate(558,427)"/>
<path d="M0 0 C0.99 0.103 1.98 0.206 3 0.312 C3.66 1.303 4.32 2.293 5 3.312 C3.812 4.812 3.812 4.812 2 6.312 C-0.688 6.5 -0.688 6.5 -3 6.312 C-3.66 4.993 -4.32 3.673 -5 2.312 C-3 0.312 -3 0.312 0 0 Z " fill="#E9ECE8" transform="translate(488,447.6875)"/>
<path d="M0 0 C2.31 0 4.62 0 7 0 C7.043 1.666 7.041 3.334 7 5 C6 6 6 6 3.562 6.188 C1 6 1 6 -1 4 C-0.625 1.875 -0.625 1.875 0 0 Z " fill="#F2F3EF" transform="translate(419,405)"/>
<path d="M0 0 C1.65 0.33 3.3 0.66 5 1 C4.67 2.65 4.34 4.3 4 6 C2.35 5.67 0.7 5.34 -1 5 C-0.67 3.35 -0.34 1.7 0 0 Z " fill="#FDFCF6" transform="translate(506,406)"/>
<path d="M0 0 C2.375 0.25 2.375 0.25 5 1 C6.312 3.062 6.312 3.062 7 5 C5.35 4.01 3.7 3.02 2 2 C2 3.98 2 5.96 2 8 C1.67 8 1.34 8 1 8 C0.67 5.36 0.34 2.72 0 0 Z M8 6 C8.99 6.495 8.99 6.495 10 7 C9.67 7.99 9.34 8.98 9 10 C8.67 8.68 8.34 7.36 8 6 Z M10 10 C10.99 10.495 10.99 10.495 12 11 C11.67 11.66 11.34 12.32 11 13 C10.67 12.01 10.34 11.02 10 10 Z " fill="#172838" transform="translate(520,477)"/>
<path d="M0 0 C0.33 0 0.66 0 1 0 C1 3.63 1 7.26 1 11 C0.34 11 -0.32 11 -1 11 C-2.188 8.312 -2.188 8.312 -3 5 C-1.688 2.125 -1.688 2.125 0 0 Z " fill="#335365" transform="translate(536,414)"/>
<path d="M0 0 C0.908 0.227 1.815 0.454 2.75 0.688 C2.75 1.348 2.75 2.007 2.75 2.688 C-0.945 3.638 -3.555 3.638 -7.25 2.688 C-4.613 0.152 -3.741 -0.36 0 0 Z " fill="#164057" transform="translate(518.25,352.3125)"/>
<path d="M0 0 C-0.99 0.33 -1.98 0.66 -3 1 C-3 1.66 -3 2.32 -3 3 C-4.98 3 -6.96 3 -9 3 C-9 2.34 -9 1.68 -9 1 C-3.375 -1.125 -3.375 -1.125 0 0 Z " fill="#E7EBE8" transform="translate(396,330)"/>
<path d="M0 0 C3.3 0.33 6.6 0.66 10 1 C10 1.33 10 1.66 10 2 C5.947 2.982 2.161 3.082 -2 3 C-1.34 2.01 -0.68 1.02 0 0 Z " fill="#244A5E" transform="translate(212,719)"/>
<path d="M0 0 C1.467 3.815 0.433 6.29 -1 10 C-1.66 9.34 -2.32 8.68 -3 8 C-2.605 5.037 -1.402 2.617 0 0 Z " fill="#EAEEEB" transform="translate(763,483)"/>
<path d="M0 0 C0.125 2.875 0.125 2.875 0 6 C-0.66 6.66 -1.32 7.32 -2 8 C-2.66 6.35 -3.32 4.7 -4 3 C-1.125 0 -1.125 0 0 0 Z " fill="#F1F5F3" transform="translate(408,525)"/>
<path d="M0 0 C0.66 0.66 1.32 1.32 2 2 C1.75 5.062 1.75 5.062 1 8 C0.01 8.495 0.01 8.495 -1 9 C-0.67 6.03 -0.34 3.06 0 0 Z " fill="#F2F4F0" transform="translate(536,496)"/>
<path d="M0 0 C2.64 0.33 5.28 0.66 8 1 C6.68 1.33 5.36 1.66 4 2 C4 2.66 4 3.32 4 4 C3.01 4 2.02 4 1 4 C0.67 2.68 0.34 1.36 0 0 Z " fill="#1D4157" transform="translate(512,441)"/>
<path d="M0 0 C0.33 0 0.66 0 1 0 C1 2.31 1 4.62 1 7 C0.34 7 -0.32 7 -1 7 C-1.33 5.35 -1.66 3.7 -2 2 C-1.34 2 -0.68 2 0 2 C0 1.34 0 0.68 0 0 Z " fill="#F2F5F1" transform="translate(351,476)"/>
<path d="M0 0 C0.66 0 1.32 0 2 0 C2 1.98 2 3.96 2 6 C1.01 5.01 0.02 4.02 -1 3 C-0.67 2.01 -0.34 1.02 0 0 Z " fill="#F2F3EF" transform="translate(518,721)"/>
<path d="M0 0 C0.99 0 1.98 0 3 0 C2.67 2.64 2.34 5.28 2 8 C1.67 8 1.34 8 1 8 C0.67 5.36 0.34 2.72 0 0 Z " fill="#071728" transform="translate(520,477)"/>
<path d="M0 0 C0.99 0.33 1.98 0.66 3 1 C2.67 1.99 2.34 2.98 2 4 C1.01 3.67 0.02 3.34 -1 3 C-0.67 2.01 -0.34 1.02 0 0 Z " fill="#1A3B4F" transform="translate(499,649)"/>
<path d="M0 0 C0.66 0.33 1.32 0.66 2 1 C1.34 2.32 0.68 3.64 0 5 C-0.562 3.062 -0.562 3.062 -1 1 C-0.67 0.67 -0.34 0.34 0 0 Z " fill="#18425A" transform="translate(596,726)"/>
<path d="M0 0 C0.99 0.33 1.98 0.66 3 1 C1.68 1.99 0.36 2.98 -1 4 C-0.67 2.68 -0.34 1.36 0 0 Z " fill="#FBFAF5" transform="translate(520,415)"/>
<path d="M0 0 C0.66 0 1.32 0 2 0 C1.67 1.32 1.34 2.64 1 4 C0.34 3.01 -0.32 2.02 -1 1 C-0.67 0.67 -0.34 0.34 0 0 Z " fill="#FEFDF6" transform="translate(423,681)"/>
</svg>